<?xml version="1.0" encoding="UTF-8" standalone="no"?>
<!DOCTYPE svg PUBLIC "-//W3C//DTD SVG 1.1//EN" "http://www.w3.org/Graphics/SVG/1.1/DTD/svg11.dtd">
<svg width="100%" height="100%" viewBox="0 0 1500 1500" version="1.1" xmlns="http://www.w3.org/2000/svg" xmlns:xlink="http://www.w3.org/1999/xlink" xml:space="preserve" xmlns:serif="http://www.serif.com/" style="fill-rule:evenodd;clip-rule:evenodd;stroke-linejoin:round;stroke-miterlimit:2;">
    <g transform="matrix(1,0,0,1,-0.0005,0)">
        <g id="Artboard1" transform="matrix(1,0,0,1,0.0005,0)">
            <rect x="0" y="0" width="1500" height="1500" style="fill:none;"/>
            <clipPath id="_clip1">
                <rect x="0" y="0" width="1500" height="1500"/>
            </clipPath>
            <g clip-path="url(#_clip1)">
                <g transform="matrix(-1.01088,-0.787136,-0.787136,1.01088,1036.53,815.195)">
                    <g id="Layer-1" serif:id="Layer 1">
                        <path d="M568.329,-365.861C505.92,-414.457 435.816,-449.387 359.965,-469.683C323.517,-479.436 285.902,-485.674 248.166,-488.222C210.813,-490.746 173.014,-489.677 135.815,-485.048C98.618,-480.42 61.709,-472.191 26.114,-460.591C-9.846,-448.87 -44.785,-433.605 -77.731,-415.217C-146.296,-376.949 -205.702,-325.902 -254.297,-263.494C-302.893,-201.084 -337.823,-130.981 -358.118,-55.129C-367.872,-18.681 -374.109,18.934 -376.658,56.669C-379.181,94.022 -378.112,131.822 -373.484,169.02C-368.854,206.218 -360.627,243.127 -349.026,278.722C-337.306,314.682 -322.04,349.621 -303.651,382.567C-265.385,451.131 -214.339,510.536 -151.93,559.132C-89.521,607.728 -19.416,642.658 56.435,662.954C92.883,672.707 130.499,678.944 168.235,681.494C205.587,684.017 243.387,682.948 280.584,678.319C317.783,673.69 354.692,665.461 390.286,653.861C426.246,642.141 461.185,626.875 494.132,608.487C562.696,570.22 622.101,519.174 670.697,456.765C719.292,394.356 754.222,324.252 774.519,248.4C784.271,211.951 790.508,174.337 793.058,136.601C795.581,99.249 794.513,61.448 789.884,24.251C785.255,-12.947 777.026,-49.856 765.427,-85.45C753.706,-121.411 738.44,-156.35 720.052,-189.297C681.785,-257.86 630.738,-317.266 568.329,-365.861ZM611.157,317.276C599.493,338.517 585.991,359.11 570.625,378.843C509.809,456.947 428.779,510.042 340.679,536.495L321.16,454.313C346.075,446.468 370.263,435.997 393.273,422.959L309.1,274.544C331.841,261.658 352.474,244.17 369.534,222.261C373.165,217.598 376.561,212.828 379.726,207.964L611.157,317.276ZM631.775,-81.276C677.944,28.928 680.046,154.789 634.546,267.899L403.122,158.591C413.345,126.414 415.291,92.471 409.347,59.881L577.154,29.218C572.601,4.248 565.522,-20.291 555.97,-43.979L631.775,-81.276ZM332.106,-345.802C387.977,-330.178 441.8,-303.638 490.407,-265.79C539.531,-227.539 578.762,-181.292 607.693,-130.319L531.888,-93.022C518.722,-115.507 503.072,-136.822 484.992,-156.536L359.105,-41.391C351.469,-49.72 343.038,-57.525 333.825,-64.699C324.612,-71.872 314.979,-78.133 305.033,-83.495L385.813,-233.763C362.724,-246.215 338.715,-256.024 314.193,-263.239L332.106,-345.802ZM-60.374,-276.152C38.307,-347.314 160.762,-375.552 278.703,-357.346L260.79,-274.783C234.993,-278.411 208.961,-279.328 183.137,-277.59L194.536,-107.386C161.834,-105.184 129.741,-95.171 101.278,-77.723L-60.374,-276.152ZM-250.653,74.685C-246.357,-16.77 -214.752,-107.84 -154.225,-185.572C-138.349,-205.961 -121.094,-224.647 -102.697,-241.598L58.961,-43.162C54.758,-38.665 50.721,-33.94 46.866,-28.99C29.806,-7.08 17.907,17.209 10.988,42.416L-153.529,-2.816C-160.522,22.656 -164.743,48.639 -166.249,74.685L-250.653,74.685ZM287.512,549.08C172.201,569.257 49.626,545.545 -52.928,474.547L-0.759,408.112C21.427,423.028 44.72,435.27 68.708,444.893L132.151,286.5C153.767,295.171 176.427,299.938 199.129,300.927L191.561,471.354C217.15,472.471 242.769,470.968 267.993,466.899L287.512,549.08ZM-95.952,440.872C-189.167,358.667 -241.633,245.791 -249.98,129.321L-165.434,129.321C-163.2,154.804 -158.375,180.041 -151.012,204.604L12.362,155.498C18.885,177.266 29.06,198.066 42.764,216.898L-95.249,317.226C-80.355,337.692 -63.188,356.896 -43.795,374.451L-95.952,440.872ZM96.133,9.373C144.327,-52.52 233.569,-63.625 295.462,-15.431C357.355,32.762 368.46,122.005 320.267,183.898C272.073,245.791 182.83,256.896 120.938,208.702C59.044,160.508 47.939,71.267 96.133,9.373ZM136.531,40.83C105.711,80.412 112.813,137.483 152.394,168.304C191.976,199.125 249.048,192.023 279.869,152.442C310.69,112.86 303.587,55.788 264.006,24.967C224.424,-5.854 167.352,1.248 136.531,40.83Z" style="fill:rgb(34,139,230);"/>
                    </g>
                </g>
            </g>
        </g>
    </g>
</svg>
